<svg width="296" height="296" viewBox="0 0 296 296" fill="none" xmlns="http://www.w3.org/2000/svg">
<path d="M147.895 295.79C229.576 295.79 295.79 229.576 295.79 147.895C295.79 66.2149 229.576 0 147.895 0C66.215 0 0 66.2149 0 147.895C0 229.576 66.215 295.79 147.895 295.79Z" fill="white"/>
<path fill-rule="evenodd" clip-rule="evenodd" d="M143.774 35.3478C141.04 84.4352 160.569 120.19 194.73 141.709L188.525 129.454C208.537 139.398 216.634 137.623 228.461 133.89C240.912 134.715 239.002 145.6 239.002 145.6L245.263 145.63C245.263 145.63 247.756 145.823 249.602 146.749C251.448 147.676 253.702 149.923 255.009 151.611C256.317 153.3 257.809 154.857 257.809 154.857C257.809 154.857 219.16 145.892 172.668 170.843C118.715 193.99 107.757 254.158 107.757 254.158C107.757 254.158 59.6553 239.552 42.2955 183.83C42.2955 183.83 55.7063 180.563 61.7797 177.74C69.2401 174.271 82.2251 164.558 82.2251 164.558C82.2251 164.558 74.7223 168.559 57.1645 173.829C39.6069 179.099 39.7973 177.743 39.7973 177.743C36.8286 160.993 37.1188 158.263 36.8036 144.946C36.8036 144.946 50.6791 146.377 57.8909 145.672C65.1027 144.967 81.6088 140.587 81.6088 140.587C67.2607 140.311 51.7829 143.055 37.9372 137.19C39.2122 123.893 39.3602 119.672 46.0961 104.458C60.5009 111.713 70.3261 115.455 86.3707 116.403C71.6814 112.843 62.3116 108.728 48.7267 97.2605C55.9653 82.4603 59.2506 79.486 66.2444 71.5799C80.9935 86.4597 89.0857 92.2815 103.547 98.8417C87.3453 85.5374 81.1121 80.8531 71.9051 65.2552C82.5133 54.3369 90.2955 51.1252 98.1874 46.8385C105.184 59.1889 108.668 67.8292 123.31 81.001C110.978 63.5523 109.453 57.5735 104.743 44.3402C118.879 37.1296 125.916 36.2468 143.774 35.3478Z" fill="#CE1126"/>
<path fill-rule="evenodd" clip-rule="evenodd" d="M146.931 35.0251C146.931 35.0251 144.69 67.5721 158.355 96.0187C172.019 124.465 188.695 133.854 188.695 133.854L185.933 124.904C205.84 136.122 215.507 134.994 230.357 130.647C241.982 133.449 242.433 142.382 242.433 142.382C246.335 142.918 250.4 141.044 259.493 154.029C259.493 154.029 262.05 141.03 257.536 123.105C253.022 105.18 242.081 83.5068 225.142 66.2535C190.187 30.6509 146.931 35.0251 146.931 35.0251Z" fill="#0038A8"/>
<path fill-rule="evenodd" clip-rule="evenodd" d="M259.392 156.363C259.392 156.363 208.461 149.781 162.362 180.3C116.263 210.818 110.601 254.454 110.601 254.454C110.601 254.454 167.54 277.298 213.704 237.948C259.867 198.597 259.392 156.363 259.392 156.363Z" fill="#0038A8"/>
<path fill-rule="evenodd" clip-rule="evenodd" d="M261.211 167.079L181.223 168.545L181.243 169.562L261.231 168.096L261.211 167.079Z" fill="white"/>
<path fill-rule="evenodd" clip-rule="evenodd" d="M259.306 176.148L163.548 177.687L163.566 178.909L259.326 177.368L259.306 176.148Z" fill="white"/>
<path fill-rule="evenodd" clip-rule="evenodd" d="M256.142 188.991L147.584 189.654L147.595 191.384L256.152 190.719L256.142 188.991Z" fill="white"/>
<path fill-rule="evenodd" clip-rule="evenodd" d="M244.296 207.842L129.832 208.613L129.846 210.647L244.308 209.876L244.296 207.842Z" fill="white"/>
<path fill-rule="evenodd" clip-rule="evenodd" d="M225.437 229.675L117.217 230.702L117.24 233.244L225.46 232.217L225.437 229.675Z" fill="white"/>
<path d="M116.798 283.33L119.49 271.478L115.349 270.538L115.902 268.105L116.168 268.165C117.678 268.508 118.828 268.523 119.621 268.211C120.421 267.901 121.006 267.21 121.377 266.14L124.149 266.77L120.211 284.105L116.798 283.33Z" fill="#0038A8"/>
<path d="M134.625 281.148C134.551 282.014 134.733 282.702 135.171 283.213C135.617 283.725 136.29 284.019 137.189 284.096C138.046 284.169 138.739 283.987 139.266 283.551C139.802 283.114 140.106 282.472 140.178 281.622C140.248 280.806 140.052 280.129 139.592 279.591C139.131 279.054 138.484 278.749 137.651 278.678C136.818 278.607 136.121 278.801 135.558 279.259C135.004 279.719 134.693 280.348 134.625 281.148ZM135.557 273.578C135.499 274.262 135.668 274.808 136.066 275.216C136.463 275.616 137.062 275.849 137.862 275.918C138.662 275.986 139.292 275.853 139.753 275.518C140.221 275.185 140.484 274.68 140.542 274.004C140.599 273.344 140.42 272.805 140.007 272.388C139.594 271.971 139 271.729 138.225 271.663C137.467 271.598 136.844 271.74 136.357 272.089C135.879 272.438 135.612 272.935 135.557 273.578ZM133.99 276.908C133.283 276.432 132.788 275.904 132.505 275.323C132.223 274.743 132.118 274.024 132.191 273.166C132.321 271.649 132.942 270.502 134.055 269.724C135.168 268.947 136.64 268.637 138.47 268.793C140.317 268.951 141.723 269.507 142.689 270.462C143.663 271.409 144.084 272.645 143.954 274.17C143.884 274.987 143.647 275.681 143.241 276.252C142.835 276.816 142.263 277.249 141.523 277.551C142.354 278.029 142.957 278.645 143.333 279.4C143.71 280.146 143.854 281.031 143.767 282.053C143.62 283.777 142.935 285.081 141.714 285.965C140.5 286.85 138.9 287.207 136.913 287.037C134.901 286.866 133.38 286.246 132.349 285.178C131.319 284.11 130.878 282.706 131.027 280.966C131.114 279.951 131.392 279.12 131.863 278.47C132.343 277.814 133.052 277.293 133.99 276.908Z" fill="#0038A8"/>
<path d="M158.363 275.13C158.309 274.114 158.01 273.326 157.467 272.766C156.931 272.198 156.225 271.937 155.349 271.983C154.523 272.027 153.893 272.346 153.461 272.941C153.036 273.535 152.851 274.345 152.906 275.37C152.957 276.328 153.236 277.064 153.744 277.575C154.251 278.087 154.939 278.32 155.807 278.274C156.658 278.229 157.309 277.929 157.761 277.375C158.212 276.82 158.413 276.072 158.363 275.13ZM158.67 279.751C158.279 280.186 157.807 280.522 157.256 280.758C156.705 280.994 156.079 281.131 155.376 281.168C153.632 281.261 152.208 280.81 151.103 279.816C149.997 278.822 149.398 277.445 149.305 275.685C149.206 273.817 149.696 272.279 150.776 271.069C151.855 269.86 153.329 269.206 155.197 269.107C157.362 268.992 159.046 269.653 160.25 271.089C161.461 272.517 162.142 274.66 162.293 277.52C162.456 280.594 161.978 282.982 160.858 284.682C159.738 286.382 158.046 287.292 155.782 287.412C154.22 287.495 152.938 287.157 151.936 286.398C150.934 285.631 150.351 284.547 150.185 283.147L153.768 282.969C153.881 283.535 154.127 283.949 154.506 284.211C154.884 284.472 155.404 284.586 156.065 284.551C156.958 284.503 157.619 284.079 158.049 283.277C158.479 282.475 158.686 281.3 158.67 279.751Z" fill="#0038A8"/>
<path d="M176.056 272.605C175.863 271.606 175.459 270.866 174.843 270.387C174.234 269.897 173.499 269.736 172.638 269.903C171.826 270.06 171.246 270.463 170.9 271.112C170.561 271.759 170.489 272.586 170.684 273.594C170.867 274.536 171.244 275.226 171.818 275.663C172.391 276.1 173.105 276.236 173.958 276.071C174.795 275.909 175.398 275.522 175.769 274.911C176.14 274.3 176.236 273.531 176.056 272.605ZM176.997 277.139C176.669 277.624 176.249 278.022 175.735 278.332C175.222 278.642 174.62 278.863 173.929 278.997C172.215 279.329 170.742 279.078 169.511 278.246C168.279 277.414 167.496 276.132 167.161 274.401C166.806 272.565 167.08 270.974 167.982 269.628C168.885 268.281 170.255 267.43 172.091 267.075C174.22 266.663 175.979 267.086 177.369 268.343C178.765 269.59 179.735 271.619 180.279 274.431C180.863 277.453 180.718 279.884 179.843 281.722C178.968 283.56 177.417 284.695 175.191 285.126C173.655 285.423 172.339 285.264 171.242 284.65C170.144 284.028 169.417 283.035 169.06 281.671L172.585 281.002C172.775 281.547 173.075 281.923 173.486 282.13C173.897 282.337 174.427 282.378 175.077 282.252C175.955 282.082 176.552 281.571 176.867 280.717C177.182 279.864 177.226 278.671 176.997 277.139Z" fill="#0038A8"/>
<path d="M76.219 254.207C76.219 254.735 76.1151 255.258 75.9131 255.745C75.7111 256.233 75.415 256.676 75.0418 257.049C74.6686 257.423 74.2255 257.719 73.7379 257.921C73.2503 258.123 72.7276 258.227 72.1998 258.227C71.1339 258.226 70.1116 257.803 69.3579 257.049C68.6042 256.296 68.1807 255.273 68.1807 254.207C68.1807 253.141 68.6042 252.119 69.3579 251.365C70.1116 250.612 71.1339 250.188 72.1998 250.188C72.7276 250.188 73.2503 250.292 73.7379 250.494C74.2255 250.696 74.6686 250.992 75.0418 251.365C75.415 251.739 75.7111 252.182 75.9131 252.669C76.1151 253.157 76.219 253.68 76.219 254.207Z" fill="#0038A8"/>
<path d="M226.135 254.207C226.135 254.735 226.031 255.258 225.829 255.745C225.627 256.233 225.331 256.676 224.958 257.049C224.585 257.423 224.142 257.719 223.654 257.921C223.167 258.123 222.644 258.227 222.116 258.227C221.05 258.226 220.028 257.803 219.275 257.049C218.521 256.296 218.097 255.273 218.097 254.207C218.097 253.141 218.521 252.119 219.275 251.365C220.028 250.612 221.05 250.188 222.116 250.188C222.644 250.188 223.167 250.292 223.654 250.494C224.142 250.696 224.585 250.992 224.958 251.365C225.331 251.739 225.627 252.182 225.829 252.669C226.031 253.157 226.135 253.68 226.135 254.207Z" fill="#0038A8"/>
<path d="M49.935 222.309L48.0686 219.688C46.9882 218.17 45.8118 217.355 44.5395 217.243C43.2549 217.128 41.7209 217.705 39.9375 218.975C38.1614 220.24 37.0815 221.486 36.698 222.712C36.3144 223.939 36.6014 225.225 37.5589 226.57L39.7095 229.59L49.935 222.309ZM55.0853 223.469L39.197 234.783L34.7652 228.559C33.0294 226.121 32.3945 223.837 32.8604 221.706C33.3213 219.568 34.8892 217.547 37.5642 215.642C39.0168 214.608 40.4555 213.919 41.8804 213.577C43.3001 213.227 44.6475 213.232 45.9226 213.592C46.8765 213.866 47.7517 214.327 48.5481 214.973C49.3373 215.625 50.2491 216.677 51.2834 218.13L55.0853 223.469Z" fill="#0038A8"/>
<path d="M43.0969 205.632L25.5092 214.065L19.3894 201.301L22.4461 199.835L26.8541 209.029L30.6033 207.232L26.5731 198.826L29.582 197.383L33.6122 205.789L38.1375 203.619L33.5234 193.996L36.7711 192.439L43.0969 205.632Z" fill="#0038A8"/>
<path d="M23.9336 186.927L22.8438 183.204C22.5488 182.196 22.1225 181.525 21.565 181.191C20.999 180.86 20.2415 180.833 19.2926 181.111C18.4031 181.371 17.7952 181.793 17.4691 182.376C17.143 182.959 17.1102 183.695 17.3705 184.585L18.5197 188.512L23.9336 186.927ZM27.3342 185.96L33.9934 184.011L35.1203 187.861L16.4008 193.34L13.9647 185.016C13.3894 183.05 13.4669 181.413 14.1969 180.105C14.9161 178.791 16.2627 177.845 18.2367 177.267C20.1684 176.702 21.8046 176.761 23.1452 177.445C24.4774 178.131 25.4126 179.394 25.9506 181.232L27.3342 185.96Z" fill="#0038A8"/>
<path d="M13.941 165.02L22.5119 166.683L21.848 161.308L13.941 165.02ZM10.3499 167.812L9.78171 163.212L28.2774 153.843L28.7936 158.022L24.974 159.828L25.9009 167.332L30.0403 168.115L30.5581 172.307L10.3499 167.812Z" fill="#0038A8"/>
<path d="M17.4561 145.487L17.6764 140.778C17.7243 139.755 17.5522 138.996 17.16 138.5C16.7683 137.996 16.1271 137.723 15.2365 137.681C14.3899 137.642 13.7397 137.845 13.2857 138.292C12.8229 138.739 12.5699 139.425 12.5266 140.351L12.2975 145.245L17.4561 145.487ZM28.2337 150.008L8.75027 149.096L9.19227 139.652C9.29173 137.527 9.81953 135.974 10.7757 134.994C11.7318 134.013 13.1446 133.567 15.014 133.654C16.2044 133.71 17.1847 134.008 17.9548 134.547C18.7253 135.078 19.2342 135.818 19.4814 136.766C19.8209 135.934 20.3075 135.356 20.9412 135.032C21.5754 134.699 22.5463 134.537 23.8538 134.545L26.159 134.574C26.1767 134.574 26.2031 134.576 26.2384 134.578C27.4036 134.606 28.1208 134.387 28.39 133.923L28.9852 133.951L28.7797 138.342C28.4997 138.47 28.1595 138.565 27.7589 138.626C27.35 138.677 26.8674 138.699 26.311 138.69L24.2583 138.647C23.0482 138.635 22.2218 138.826 21.7792 139.221C21.3369 139.606 21.0908 140.333 21.0409 141.4L20.8421 145.646L28.4212 146L28.2337 150.008Z" fill="#0038A8"/>
<path d="M30.6672 124.95L14.9948 121.62L13.7922 127.28L10.3857 126.556L13.6165 111.35L17.023 112.074L15.8286 117.695L31.501 121.025L30.6672 124.95Z" fill="#0038A8"/>
<path d="M33.7329 111.405L15.698 103.977L17.9572 98.4921L33.16 100.558L20.8922 91.3662L23.1615 85.8566L41.1964 93.2848L39.7642 96.762L25.2188 90.771L38.2564 100.423L36.6931 104.218L20.6196 101.937L35.1651 107.928L33.7329 111.405Z" fill="#0038A8"/>
<path d="M44.1915 88.1955L27.8754 77.5082L35.6315 65.6671L38.4672 67.5245L32.8805 76.0536L36.3586 78.3318L41.4665 70.5338L44.2578 72.3622L39.1499 80.1602L43.348 82.9101L49.196 73.9822L52.2089 75.9557L44.1915 88.1955Z" fill="#0038A8"/>
<path d="M55.2087 72.1164L40.987 58.768L43.8597 55.7074L59.0496 59.1046L49.2788 49.9338L51.9884 47.047L66.21 60.3954L63.3736 63.4174L48.1475 60.0588L57.9182 69.2296L55.2087 72.1164Z" fill="#0038A8"/>
<path d="M73.8785 54.1413L64.1529 41.4085L59.5543 44.921L57.4404 42.1534L69.7944 32.7171L71.9083 35.4847L67.3413 38.9731L77.0669 51.7059L73.8785 54.1413Z" fill="#0038A8"/>
<path d="M95.5677 29.6459C96.3526 31.6422 97.4066 33.0206 98.7299 33.7809C100.05 34.533 101.507 34.5957 103.101 33.9691C104.711 33.3361 105.748 32.2931 106.21 30.8401C106.67 29.379 106.507 27.6502 105.722 25.6538C104.937 23.6574 103.881 22.2848 102.553 21.536C101.221 20.7789 99.7501 20.7169 98.1398 21.3499C96.546 21.9765 95.5218 23.0147 95.0673 24.4644C94.6128 25.9141 94.7796 27.6412 95.5677 29.6459ZM91.7598 31.1429C90.6068 28.2099 90.4896 25.5716 91.4084 23.2279C92.3322 20.8728 94.1497 19.1624 96.8608 18.0965C99.572 17.0307 102.068 17.0455 104.348 18.141C106.637 19.2332 108.356 21.2417 109.506 24.1665C110.655 27.0912 110.764 29.7328 109.832 32.0911C108.908 34.4462 107.091 36.1567 104.38 37.2225C101.669 38.2883 99.173 38.2735 96.8927 37.178C94.6206 36.0794 92.9096 34.0676 91.7598 31.1429Z" fill="#0038A8"/>
<path d="M117.937 32.0947L114.036 12.984L127.373 10.2615L128.051 13.5829L118.593 15.5135L119.477 19.8468L127.768 18.1545L128.446 21.4759L120.155 23.1681L121.816 31.3028L117.937 32.0947Z" fill="#0038A8"/>
<path d="M152.241 28.5256L153.094 12.5261L147.315 12.2181L147.501 8.74048L163.024 9.56802L162.839 13.0456L157.1 12.7397L156.247 28.7392L152.241 28.5256Z" fill="#0038A8"/>
<path d="M172.332 19.7395L176.936 20.7493C177.937 20.9686 178.714 20.9267 179.268 20.6235C179.832 20.3223 180.209 19.7362 180.4 18.8653C180.581 18.0375 180.49 17.3622 180.125 16.8395C179.763 16.3081 179.129 15.9432 178.224 15.7446L173.438 14.6952L172.332 19.7395ZM166.061 29.6025L170.239 10.5504L179.474 12.5756C181.552 13.0314 182.994 13.813 183.8 14.9205C184.605 16.028 184.807 17.4957 184.407 19.3238C184.151 20.4878 183.693 21.404 183.031 22.0723C182.378 22.7424 181.563 23.1196 180.587 23.2037C181.35 23.6784 181.838 24.2553 182.051 24.9346C182.272 25.6157 182.269 26.6 182.041 27.8875L181.625 30.1551C181.621 30.1723 181.615 30.1982 181.608 30.2327C181.384 31.3766 181.478 32.1203 181.891 32.4638L181.763 33.0459L177.469 32.1042C177.39 31.8066 177.354 31.4553 177.361 31.0503C177.379 30.6385 177.439 30.1591 177.541 29.6121L177.929 27.596C178.145 26.4052 178.096 25.5584 177.781 25.0556C177.475 24.5548 176.801 24.1899 175.757 23.9611L171.606 23.0506L169.98 30.4619L166.061 29.6025Z" fill="#0038A8"/>
<path d="M199.264 22.9909L193.611 29.6445L198.621 31.7021L199.264 22.9909ZM198.593 18.4921L202.88 20.253L201.973 40.9666L198.078 39.3667L198.378 35.1523L191.384 32.2797L188.671 35.503L184.764 33.8982L198.593 18.4921Z" fill="#0038A8"/>
<path d="M205.313 42.824L215.802 26.3798L219.341 28.6371L218.811 44.1932L226.017 32.8954L229.355 35.0246L218.866 51.4688L215.372 49.24L215.857 33.6554L208.651 44.9532L205.313 42.824Z" fill="#0038A8"/>
<path d="M226.873 50.0703L229.788 52.7501C229.175 53.638 228.959 54.5186 229.139 55.3919C229.326 56.2588 229.922 57.1553 230.93 58.0814C231.787 58.8701 232.574 59.3119 233.291 59.4068C234.007 59.5018 234.64 59.2503 235.19 58.6525C235.99 57.7817 235.403 55.9102 233.427 53.038C233.4 53.0016 233.377 52.9682 233.357 52.9378C233.304 52.865 233.224 52.7497 233.117 52.5917C232.048 51.0684 231.394 49.8619 231.157 48.9722C230.949 48.1813 230.962 47.3904 231.198 46.5995C231.439 45.8022 231.904 45.0299 232.591 44.2826C233.876 42.8855 235.333 42.2528 236.963 42.3843C238.599 42.5094 240.313 43.3965 242.107 45.0456C243.783 46.5872 244.728 48.1876 244.941 49.8467C245.161 51.5119 244.634 53.0896 243.359 54.58L240.523 51.9719C241.11 51.2288 241.331 50.4542 241.185 49.6482C241.038 48.8421 240.52 48.0298 239.63 47.2112C238.856 46.5002 238.118 46.1032 237.415 46.0202C236.724 45.9367 236.122 46.1744 235.608 46.7332C234.909 47.4935 235.202 48.812 236.486 50.6886C236.832 51.1989 237.102 51.5968 237.295 51.8824C238.097 53.1108 238.646 53.9999 238.944 54.5496C239.249 55.1054 239.48 55.6237 239.637 56.1044C239.923 56.967 239.965 57.8025 239.761 58.6107C239.564 59.4124 239.121 60.1869 238.434 60.9342C237.06 62.4288 235.49 63.1257 233.724 63.0248C231.964 62.9174 230.167 62.0213 228.335 60.3363C226.528 58.6752 225.497 56.9535 225.241 55.1711C224.985 53.3888 225.529 51.6885 226.873 50.0703Z" fill="#0038A8"/>
<path d="M248.522 65.6817L250.908 68.7407C251.554 69.569 252.198 70.0353 252.839 70.1397C253.487 70.2386 254.201 69.984 254.981 69.3758C255.712 68.8057 256.121 68.1896 256.209 67.5275C256.297 66.8654 256.056 66.1689 255.486 65.4381L252.969 62.212L248.522 65.6817ZM245.718 67.8355L240.247 72.1034L237.779 68.94L253.158 56.9427L258.493 63.7811C259.752 65.3958 260.284 66.9459 260.088 68.4311C259.904 69.918 259.002 71.2939 257.38 72.5591C255.793 73.7971 254.251 74.3456 252.752 74.2046C251.261 74.0581 249.926 73.2297 248.748 71.7193L245.718 67.8355Z" fill="#0038A8"/>
<path d="M259.866 83.233C257.966 84.228 256.709 85.4242 256.096 86.8216C255.49 88.215 255.584 89.6702 256.378 91.1874C257.181 92.7203 258.329 93.6385 259.824 93.9423C261.326 94.242 263.027 93.8943 264.927 92.8993C266.828 91.9043 268.079 90.7063 268.681 89.3052C269.29 87.8999 269.193 86.4309 268.391 84.898C267.597 83.3809 266.454 82.4743 264.964 82.1783C263.474 81.8824 261.775 82.2339 259.866 83.233ZM257.969 79.6082C260.761 78.1464 263.371 77.7462 265.8 78.4076C268.241 79.0728 270.137 80.6958 271.488 83.2766C272.839 85.8574 273.093 88.3402 272.249 90.7251C271.409 93.1178 269.597 95.043 266.813 96.5007C264.029 97.9584 261.414 98.3508 258.969 97.6778C256.529 97.0126 254.633 95.3897 253.281 92.8089C251.93 90.2281 251.677 87.7452 252.52 85.3603C253.368 82.9833 255.184 81.0659 257.969 79.6082Z" fill="#0038A8"/>
<path d="M271.596 106.35L272.969 110.86C273.267 111.84 273.684 112.497 274.219 112.832C274.758 113.176 275.453 113.218 276.306 112.958C277.117 112.712 277.661 112.302 277.939 111.728C278.225 111.152 278.233 110.42 277.963 109.534L276.536 104.847L271.596 106.35ZM259.926 105.708L278.586 100.029L281.339 109.074C281.958 111.109 281.982 112.749 281.41 113.993C280.839 115.238 279.658 116.132 277.867 116.677C276.727 117.024 275.704 117.073 274.797 116.823C273.893 116.581 273.166 116.055 272.614 115.245C272.574 116.143 272.31 116.851 271.821 117.368C271.336 117.895 270.475 118.373 269.241 118.804L267.06 119.551C267.043 119.557 267.018 119.564 266.984 119.574C265.877 119.939 265.274 120.385 265.177 120.913L264.607 121.087L263.327 116.881C263.547 116.666 263.836 116.463 264.193 116.271C264.561 116.085 265.008 115.903 265.535 115.724L267.484 115.076C268.628 114.682 269.342 114.224 269.627 113.704C269.914 113.192 269.902 112.425 269.591 111.403L268.353 107.337L261.095 109.546L259.926 105.708Z" fill="#0038A8"/>
<path d="M266.026 130.133L281.906 127.998L281.135 122.263L284.586 121.799L286.657 137.206L283.206 137.67L282.44 131.975L266.561 134.109L266.026 130.133Z" fill="#0038A8"/>
<path d="M282.901 150.519L274.654 147.653L274.546 153.068L282.901 150.519ZM286.853 148.267L286.76 152.901L267.119 159.542L267.203 155.332L271.241 154.088L271.392 146.529L267.406 145.164L267.49 140.941L286.853 148.267Z" fill="#0038A8"/>
<path d="M265.918 166.338L281.701 169.1L282.698 163.4L286.128 164L283.449 179.313L280.018 178.713L281.009 173.052L265.227 170.29L265.918 166.338Z" fill="#0038A8"/>
<path d="M262.962 179.998L281.664 185.538L280.524 189.385L261.823 183.845L262.962 179.998Z" fill="#0038A8"/>
<path d="M267.683 196.583C265.731 195.693 264.015 195.435 262.536 195.808C261.064 196.185 259.973 197.153 259.262 198.711C258.545 200.286 258.525 201.756 259.202 203.122C259.887 204.492 261.206 205.622 263.158 206.511C265.11 207.401 266.824 207.653 268.299 207.268C269.783 206.887 270.883 205.909 271.601 204.335C272.311 202.777 272.326 201.318 271.645 199.96C270.964 198.602 269.643 197.476 267.683 196.583ZM269.38 192.86C272.248 194.167 274.166 195.982 275.134 198.306C276.107 200.641 275.99 203.134 274.782 205.785C273.573 208.436 271.769 210.16 269.368 210.957C266.964 211.763 264.332 211.514 261.472 210.21C258.612 208.907 256.698 207.084 255.729 204.74C254.756 202.405 254.873 199.912 256.082 197.261C257.29 194.611 259.094 192.887 261.495 192.089C263.892 191.3 266.521 191.557 269.38 192.86Z" fill="#0038A8"/>
<path d="M249.997 210.439L265.898 221.735L263.467 225.157L247.957 223.852L258.881 231.612L256.588 234.84L240.688 223.544L243.088 220.165L258.629 221.427L247.704 213.667L249.997 210.439Z" fill="#0038A8"/>
</svg>
