<svg width="300" height="300" viewBox="0 0 300 300" fill="none" xmlns="http://www.w3.org/2000/svg">
<g clip-path="url(#clip0_3872_485)">
<path d="M300 150C300 189.782 284.196 227.936 256.066 256.066C227.936 284.196 189.782 300 150 300C110.218 300 72.0644 284.196 43.934 256.066C15.8035 227.936 0 189.782 0 150C2.27328e-06 110.218 15.8035 72.0644 43.934 43.934C72.0644 15.8035 110.218 0 150 0C189.782 0 227.936 15.8035 256.066 43.934C284.196 72.0644 300 110.218 300 150Z" fill="#0038A8"/>
<path d="M265.91 152.431C265.91 168.029 262.91 183.475 257.081 197.887C251.252 212.298 242.708 225.392 231.938 236.422C221.167 247.452 208.381 256.202 194.309 262.171C180.236 268.14 165.154 271.213 149.922 271.213C134.69 271.213 119.607 268.14 105.535 262.171C91.4627 256.202 78.6762 247.452 67.9057 236.422C57.1352 225.392 48.5916 212.298 42.7627 197.887C36.9337 183.475 33.9336 168.029 33.9336 152.431C33.9336 136.832 36.9337 121.386 42.7627 106.975C48.5916 92.5633 57.1352 79.4688 67.9057 68.4389C78.6762 57.409 91.4627 48.6595 105.535 42.6902C119.607 36.7208 134.69 33.6484 149.922 33.6484C180.684 33.6484 210.186 46.163 231.938 68.4389C253.69 90.7149 265.91 120.928 265.91 152.431Z" fill="white" stroke="#0038A8" stroke-width="0.59539" stroke-linecap="square" stroke-linejoin="round"/>
<path d="M64.8132 98.7811L93.4643 116.633M239.442 97.3472L199.872 120.513M150.344 205.414L149.58 253.668M248.522 151.685C248.522 178.221 238.126 203.671 219.623 222.435C201.119 241.199 176.023 251.741 149.855 251.741C123.686 251.741 98.5901 241.199 80.0864 222.435C61.5827 203.671 51.1875 178.221 51.1875 151.685C51.1875 125.148 61.5827 99.6987 80.0864 80.9346C98.5901 62.1705 123.686 51.6289 149.855 51.6289C176.023 51.6289 201.119 62.1705 219.623 80.9346C238.126 99.6987 248.522 125.148 248.522 151.685Z" stroke="black" stroke-width="18.5552" stroke-linejoin="bevel"/>
<path d="M215.052 153.336C215.052 171.596 208.019 189.109 195.501 202.021C182.983 214.933 166.005 222.187 148.301 222.187C130.598 222.187 113.62 214.933 101.102 202.021C88.5834 189.109 81.5508 171.596 81.5508 153.336C81.5508 135.075 88.5834 117.563 101.102 104.65C113.62 91.7383 130.598 84.4844 148.301 84.4844C166.005 84.4844 182.983 91.7383 195.501 104.65C208.019 117.563 215.052 135.075 215.052 153.336Z" stroke="white" stroke-width="7.32824" stroke-linecap="square"/>
<path d="M237.582 201.028L59.2598 199.826L149.477 48.2773L237.582 201.028Z" stroke="white" stroke-width="16.3049" stroke-linecap="square"/>
<path d="M234.597 199.367L62.9492 198.207L149.79 51.9492L234.597 199.367Z" stroke="#CE1126" stroke-width="13.6662" stroke-linecap="square"/>
<path d="M139.574 82.1719H160.067V220.701H139.574V82.1719Z" fill="#0238A8" stroke="white" stroke-width="3.28808" stroke-linecap="round" stroke-linejoin="round"/>
<path d="M216.206 139.168V157.701H82.6191V139.168H216.206Z" fill="#0238A8" stroke="white" stroke-width="3.20767" stroke-linecap="round" stroke-linejoin="round"/>
<path d="M85.8555 123.401L96.5222 106.461L210.187 176.867L199.52 193.808L85.8555 123.401Z" fill="#0238A8" stroke="white" stroke-width="3.15616" stroke-linecap="round" stroke-linejoin="round"/>
<path d="M204.226 106.633L213.285 122.034L95.4122 190.265L86.3535 174.865L204.226 106.633Z" fill="#0238A8" stroke="white" stroke-width="3.17143" stroke-linecap="round" stroke-linejoin="round"/>
<path d="M104.029 95.7126L119.719 87.3711L188.66 201.167L172.971 209.509L104.029 95.7126Z" fill="#0238A8" stroke="white" stroke-width="3.18047" stroke-linecap="round" stroke-linejoin="round"/>
<path d="M179.341 87.8086L195.062 97.2442L125.62 211.156L109.898 201.72L179.341 87.8086Z" fill="#0238A8" stroke="white" stroke-width="3.27054" stroke-linecap="round" stroke-linejoin="round"/>
<path d="M160.545 90.6875C165.315 91.5899 169.953 93.0813 174.349 95.1269L149.648 147.353L160.545 90.6875Z" fill="#0238A8" stroke="white" stroke-width="4.2161" stroke-linecap="round" stroke-linejoin="round"/>
<path d="M190.951 106.738C192.394 108.182 193.759 109.701 195.041 111.288L149.648 147.354L190.951 106.738Z" fill="#0238A8" stroke="white" stroke-width="4.2161" stroke-linecap="round" stroke-linejoin="round"/>
<path d="M205.178 130.195C206.056 132.99 206.718 135.847 207.158 138.741Z" fill="#0238A8"/>
<path d="M205.178 130.195C206.056 132.99 206.718 135.847 207.158 138.741" stroke="white" stroke-width="4.2161" stroke-linecap="round" stroke-linejoin="round"/>
<path d="M206.67 158.715C205.918 162.428 204.799 166.058 203.33 169.554Z" fill="#0238A8"/>
<path d="M206.67 158.715C205.918 162.428 204.799 166.058 203.33 169.554" stroke="white" stroke-width="4.2161" stroke-linecap="round" stroke-linejoin="round"/>
<path d="M189.98 188.916C188.314 190.506 186.554 191.997 184.709 193.379L149.648 147.352L189.98 188.916Z" fill="#0238A8" stroke="white" stroke-width="4.2161" stroke-linecap="round" stroke-linejoin="round"/>
<path d="M166.804 202.472C164.779 203.092 162.722 203.602 160.641 203.999L149.648 147.352L166.804 202.472Z" fill="#0238A8" stroke="white" stroke-width="4.2161" stroke-linecap="round" stroke-linejoin="round"/>
<path d="M138.589 203.988C136.876 203.659 135.178 203.254 133.502 202.773Z" fill="#0238A8"/>
<path d="M138.589 203.988C136.876 203.659 135.178 203.254 133.502 202.773" stroke="white" stroke-width="4.2161" stroke-linecap="round" stroke-linejoin="round"/>
<path d="M114.368 193.214C111.472 191.022 108.789 188.565 106.355 185.874L149.648 147.352L114.368 193.214Z" fill="#0238A8" stroke="white" stroke-width="4.2161" stroke-linecap="round" stroke-linejoin="round"/>
<path d="M95.3732 168.088C94.227 165.137 93.3275 162.098 92.6836 159.001L149.647 147.352L95.3732 168.088Z" fill="#0238A8" stroke="white" stroke-width="4.2161" stroke-linecap="round" stroke-linejoin="round"/>
<path d="M92.2305 138.225C92.6982 135 93.2883 132.733 94.2972 129.633Z" fill="#0238A8"/>
<path d="M92.2305 138.225C92.6982 135 93.2883 132.733 94.2972 129.633" stroke="white" stroke-width="4.2161" stroke-linecap="round" stroke-linejoin="round"/>
<path d="M105.307 110.022C106.541 108.58 107.847 107.198 109.218 105.883Z" fill="#0238A8"/>
<path d="M105.307 110.022C106.541 108.58 107.847 107.198 109.218 105.883" stroke="white" stroke-width="4.2161" stroke-linecap="round" stroke-linejoin="round"/>
<path d="M125.908 94.6916C129.92 92.9127 134.121 91.5904 138.433 90.75L149.648 147.354L125.908 94.6916Z" fill="#0238A8" stroke="white" stroke-width="4.2161" stroke-linecap="round" stroke-linejoin="round"/>
<path d="M206.897 147.724C206.897 155.143 205.418 162.49 202.544 169.344C199.67 176.199 195.458 182.427 190.148 187.673C184.838 192.919 178.534 197.081 171.596 199.92C164.659 202.759 157.223 204.221 149.713 204.221C142.204 204.221 134.768 202.759 127.83 199.92C120.892 197.081 114.588 192.919 109.278 187.673C103.968 182.427 99.7559 176.199 96.8822 169.344C94.0084 162.49 92.5293 155.143 92.5293 147.724C92.5293 132.74 98.554 118.369 109.278 107.774C120.002 97.1789 134.547 91.2266 149.713 91.2266C164.879 91.2266 179.424 97.1789 190.148 107.774C200.872 118.369 206.897 132.74 206.897 147.724Z" fill="#0238A8"/>
<path d="M178.422 81.832C189.767 87.0569 199.59 95.0346 206.979 105.023C214.368 115.011 219.083 126.685 220.683 138.959" stroke="white" stroke-width="8" stroke-linecap="round" stroke-linejoin="round"/>
<path d="M76.6303 156.264C75.7477 141.897 79.2338 127.594 86.6398 115.196C94.0459 102.797 105.033 92.8711 118.186 86.6953" stroke="white" stroke-width="8" stroke-linecap="round" stroke-linejoin="round"/>
<path d="M182.043 209.91C171.693 214.34 160.341 216.575 148.869 216.44C137.397 216.305 126.114 213.805 115.898 209.133" stroke="white" stroke-width="9.75284" stroke-linecap="round" stroke-linejoin="round"/>
<path d="M140.369 194.503C124.683 191.885 111.646 182.19 104.84 168.079C96.3512 150.482 99.5352 129.613 112.885 115.347C120.191 107.539 129.595 102.514 140.205 100.75C144.305 100.068 151.661 100.086 155.806 100.788C175.139 104.06 190.322 118.706 194.635 138.243C195.578 142.515 195.647 152.22 194.764 156.329C192.747 165.716 188.837 173.359 182.73 179.852C175.858 187.159 167.722 191.778 157.736 194.042C153.999 194.889 144.236 195.148 140.369 194.503Z" fill="white" stroke="white" stroke-width="1.50154" stroke-linecap="square"/>
<path d="M184.585 148.747C184.585 153.696 183.624 158.597 181.756 163.169C179.889 167.741 177.152 171.895 173.701 175.394C170.25 178.894 166.153 181.67 161.645 183.564C157.136 185.457 152.304 186.432 147.423 186.432C142.543 186.432 137.711 185.457 133.202 183.564C128.694 181.67 124.597 178.894 121.146 175.394C117.695 171.895 114.958 167.741 113.09 163.169C111.223 158.597 110.262 153.696 110.262 148.747C110.262 138.753 114.177 129.167 121.146 122.1C128.115 115.033 137.568 111.063 147.423 111.063C152.304 111.062 157.136 112.037 161.645 113.931C166.153 115.825 170.25 118.601 173.701 122.1C177.151 125.599 179.889 129.754 181.756 134.326C183.624 138.898 184.585 143.798 184.585 148.747Z" stroke="#CE1126" stroke-width="5.19546" stroke-linecap="square"/>
<path d="M98.957 129.855H200.551V166.234H98.957V129.855Z" fill="white" stroke="#CE1126" stroke-width="4.26554" stroke-linecap="square" stroke-linejoin="round"/>
<path d="M106.936 135.92H121.073V139.408H119.829C119.138 139.408 118.703 139.438 118.523 139.499C118.191 139.619 117.95 139.806 117.798 140.059C117.646 140.3 117.57 140.691 117.57 141.234V155.639C117.57 156.217 117.597 156.573 117.652 156.705C117.722 156.838 117.853 156.946 118.046 157.031C118.24 157.103 118.613 157.139 119.166 157.139C121.017 157.139 122.503 156.928 123.622 156.507C124.756 156.085 125.771 155.41 126.67 154.482C127.582 153.542 128.362 152.271 129.012 150.668L132.826 151.807L129.012 161.134H106.936V157.645H108.324C108.891 157.645 109.319 157.579 109.61 157.446C109.9 157.314 110.107 157.139 110.231 156.922C110.37 156.693 110.439 156.302 110.439 155.747V141.469C110.439 140.866 110.37 140.432 110.231 140.167C110.107 139.902 109.921 139.709 109.672 139.589C109.437 139.468 109.036 139.408 108.469 139.408H106.936V135.92Z" fill="#CE1126"/>
<path d="M136.06 135.07H138.796L139.086 135.92H155.4L155.752 135.07H158.509L162.095 143.909L158.24 145.084C157.383 143.613 156.768 142.656 156.395 142.21C155.663 141.33 154.82 140.637 153.866 140.131C153.147 139.746 152.436 139.553 151.731 139.553C151.399 139.553 151.171 139.625 151.047 139.77C150.922 139.902 150.86 140.215 150.86 140.71V155.205C150.86 156.061 150.895 156.597 150.964 156.814C151.033 157.031 151.151 157.205 151.316 157.338C151.482 157.458 151.71 157.543 152 157.591C152.291 157.627 153.064 157.645 154.322 157.645V161.133H140.226V157.645H141.076C142.016 157.645 142.617 157.597 142.88 157.501C143.142 157.392 143.343 157.211 143.481 156.958C143.619 156.693 143.688 156.151 143.688 155.332V140.511C143.688 140.089 143.633 139.824 143.522 139.715C143.412 139.607 143.177 139.553 142.817 139.553C142.099 139.553 141.297 139.788 140.413 140.258C139.528 140.728 138.741 141.39 138.05 142.246C137.773 142.583 137.186 143.529 136.288 145.083L132.494 143.909L136.06 135.07Z" fill="#CE1126"/>
<path d="M179.3 135.486C183.888 135.486 187.599 136.703 190.432 139.137C193.279 141.571 194.702 144.698 194.702 148.518C194.702 151.084 194.053 153.362 192.754 155.35C191.455 157.338 189.658 158.874 187.364 159.959C185.084 161.031 182.327 161.567 179.093 161.567C174.823 161.567 171.327 160.543 168.604 158.495C165.315 156.025 163.671 152.723 163.671 148.59C163.671 144.746 165.108 141.601 167.982 139.155C170.871 136.709 174.643 135.486 179.3 135.486ZM179.383 139.499C177.186 139.499 175.438 140.215 174.139 141.649C172.508 143.457 171.693 145.788 171.693 148.644C171.693 151.5 172.453 153.759 173.973 155.422C175.286 156.844 177.02 157.555 179.176 157.555C181.346 157.555 183.08 156.844 184.379 155.422C185.913 153.723 186.68 151.452 186.68 148.608C186.68 146.608 186.348 144.927 185.685 143.565C185.035 142.204 184.151 141.185 183.032 140.511C181.912 139.836 180.696 139.499 179.383 139.499Z" fill="#CE1126"/>
<path d="M26.5772 134.423L7.87109 131.037L8.4934 127.501L24.017 130.312L25.1402 123.931L28.3227 124.507L26.5772 134.423Z" fill="white"/>
<path d="M22.9337 115.075L23.7979 112.151L15.7268 111.305L22.9337 115.075ZM28.7791 122.233L11.8058 112.543L13.1694 107.928L32.6111 109.264L31.5168 112.968L26.6734 112.489L25.5047 116.444L29.8168 118.721L28.7791 122.233Z" fill="white"/>
<path d="M33.7442 106.293L16.368 98.4946L17.8411 95.1192L31.9955 95.9846L19.8035 90.6224L21.1567 87.5217L38.5329 95.3199L37.0698 98.6724L22.8778 97.8312L35.0924 103.203L33.7442 106.293Z" fill="white"/>
<path d="M40.029 86.8016L40.8428 85.4436C41.2571 84.7521 41.4984 84.237 41.5666 83.8984C41.6348 83.5597 41.5985 83.2347 41.4577 82.9235C41.2068 82.3784 40.7521 81.82 40.0937 81.2483C39.4282 80.6723 38.287 79.8861 36.6702 78.8897C35.0955 77.9194 33.907 77.2846 33.1045 76.9853C32.302 76.686 31.6155 76.5948 31.0449 76.7117C30.7553 76.7773 30.49 76.931 30.2488 77.1728C30.0049 77.4032 29.7035 77.8178 29.3447 78.4166L28.5565 79.7318L40.029 86.8016ZM40.622 91.2813L24.3834 81.2745L27.3374 76.3451C27.9397 75.3399 28.5025 74.5935 29.0258 74.1058C29.5533 73.6109 30.1222 73.288 30.7325 73.137C31.6339 72.9018 32.5804 72.9287 33.5719 73.2176C34.5607 73.495 35.9479 74.1839 37.7334 75.2842C40.0392 76.7051 41.6209 77.7921 42.4787 78.5452C43.3295 79.294 43.9713 80.0702 44.4042 80.8738C44.8456 81.6632 44.997 82.4788 44.8583 83.3206C44.7168 84.151 44.1484 85.3966 43.1531 87.0576L40.622 91.2813Z" fill="white"/>
<path d="M55.715 69.3587L43.8281 58.6995L41.1308 61.7927L38.783 59.6874L46.5234 50.8108L48.8712 52.9161L46.1739 56.0093L58.0608 66.6685L55.715 69.3587Z" fill="white"/>
<path d="M58.2176 50.7146L59.7348 49.3379C60.5011 48.6426 60.8942 48.0061 60.9142 47.4283C60.9403 46.8449 60.5996 46.1523 59.892 45.3504C59.2613 44.6355 58.6573 44.2824 58.08 44.2913C57.5028 44.3001 56.7851 44.6939 55.9269 45.4726L54.6304 46.6491L58.2176 50.7146ZM62.9849 61.3154L50.3143 46.9554L55.0407 42.6668C56.469 41.3708 57.7564 40.7344 58.9027 40.7576C60.0497 40.7691 61.2101 41.4399 62.3839 42.7703C63.2067 43.7027 63.6881 44.5923 63.8282 45.4391C63.9627 46.2796 63.7432 47.0441 63.1695 47.7325C64.7163 46.9335 66.3153 47.4135 67.9666 49.1724C68.0379 49.2532 68.0928 49.3154 68.1312 49.3589L69.8832 51.1944C70.3849 51.713 70.8363 52.0869 71.2374 52.3163C71.6329 52.5394 72.0514 52.6634 72.4928 52.6883L69.3664 55.525C69.0789 55.3493 68.7742 55.1166 68.4522 54.8267C68.1247 54.5306 67.6915 54.0897 67.1527 53.504L65.7913 52.0361L65.4539 51.6538C64.7189 50.8208 64.0396 50.4074 63.4159 50.4137C62.7922 50.4199 61.944 50.9097 60.8712 51.8831L59.9701 52.7008L65.532 59.0043L62.9849 61.3154Z" fill="white"/>
<path d="M73.7047 42.3232L76.1792 40.5841L70.3915 34.8171L73.7047 42.3232ZM73.8699 51.6152L66.5654 33.3044L70.4698 30.5604L84.8429 43.9035L81.7092 46.1059L78.2185 42.6675L74.8718 45.0195L76.8413 49.5269L73.8699 51.6152Z" fill="white"/>
<path d="M87.5565 42.298L78.7911 25.2014L82.0207 23.4987L92.5408 33.1407L86.3231 21.2303L89.2899 19.6661L98.0553 36.7627L94.8476 38.4539L84.2833 28.807L90.5124 40.7396L87.5565 42.298Z" fill="white"/>
<path d="M99.5474 28.7267L102.872 27.4892L103.293 28.6521C103.695 29.764 104.105 30.4733 104.523 30.7799C104.946 31.0757 105.493 31.0987 106.165 30.8486C106.867 30.587 107.335 30.2085 107.567 29.7132C107.808 29.215 107.8 28.6135 107.545 27.9087C107.35 27.3684 107.055 26.9539 106.661 26.665C106.265 26.3683 105.531 26.0727 104.46 25.7781L102.316 25.1904C100.474 24.7029 99.2309 24.1972 98.5855 23.6732C97.9479 23.1464 97.4449 22.374 97.0763 21.356C96.5264 19.8368 96.5396 18.4812 97.1158 17.2893C97.692 16.0973 98.76 15.211 100.32 14.6303C101.972 14.0152 103.405 14.0018 104.617 14.5903C105.829 15.1788 106.745 16.3305 107.366 18.0454C107.428 18.2177 107.472 18.3523 107.499 18.4491C107.533 18.5431 107.559 18.6267 107.576 18.7001L104.426 19.8729L104.252 19.3913C103.897 18.4125 103.485 17.7706 103.016 17.4656C102.546 17.1606 101.948 17.1432 101.222 17.4134C100.689 17.6118 100.327 17.929 100.134 18.365C99.9462 18.7903 99.9544 19.2849 100.158 19.8487C100.433 20.6083 101.422 21.1957 103.123 21.611L103.166 21.6215L105.451 22.1971C107.074 22.5883 108.258 23.0892 109.005 23.6998C109.749 24.3026 110.339 25.2069 110.776 26.4128C111.371 28.0573 111.367 29.4984 110.764 30.736C110.16 31.9737 108.997 32.913 107.275 33.554C105.484 34.2209 103.978 34.2484 102.757 33.6364C101.545 33.0216 100.59 31.751 99.8923 29.8246C99.8186 29.621 99.7121 29.2786 99.5729 28.7972L99.5474 28.7267Z" fill="white"/>
<path d="M117.389 18.5939L118.831 18.2529C119.905 17.9991 120.609 17.6099 120.945 17.0851C121.278 16.5523 121.326 15.77 121.089 14.7383C120.85 13.6984 120.485 13.0268 119.992 12.7235C119.507 12.4101 118.707 12.3851 117.593 12.6484L116.103 13.0007L117.389 18.5939ZM116.487 29.9337L112.172 11.1678L118.156 9.75286C119.983 9.32098 121.392 9.42464 122.384 10.0638C123.375 10.703 124.088 11.965 124.521 13.8497C124.947 15.7019 124.836 17.1843 124.188 18.2968C123.546 19.3994 122.348 20.158 120.594 20.5729L118.082 21.1667L119.912 29.1239L116.487 29.9337Z" fill="white"/>
<path d="M133.428 16.7993C133.75 19.9523 134.132 21.9206 134.576 22.7043C135.027 23.4789 135.744 23.8146 136.726 23.7116C137.691 23.6104 138.309 23.143 138.58 22.3096C138.858 21.467 138.834 19.4526 138.509 16.2663C138.184 13.0801 137.8 11.0994 137.357 10.324C136.914 9.54857 136.206 9.21193 135.232 9.31404C134.259 9.41616 133.633 9.89269 133.356 10.7436C133.079 11.5945 133.103 13.6131 133.428 16.7993ZM129.832 17.1764C129.625 15.1435 129.553 13.5115 129.618 12.2804C129.682 11.0409 129.883 10.0932 130.221 9.4371C130.68 8.50837 131.272 7.81741 131.994 7.36422C132.717 6.91103 133.701 6.61922 134.944 6.48878C136.188 6.35834 137.209 6.43992 138.008 6.7335C138.807 7.02707 139.53 7.5803 140.175 8.39318C140.64 8.98173 141.024 9.87227 141.328 11.0648C141.64 12.2565 141.899 13.8646 142.105 15.8892C142.311 17.9055 142.382 19.5333 142.318 20.7728C142.253 22.004 142.057 22.9554 141.728 23.6272C141.261 24.5568 140.666 25.2482 139.943 25.7014C139.22 26.1546 138.237 26.4464 136.993 26.5768C135.749 26.7073 134.728 26.6257 133.929 26.3321C133.13 26.0385 132.412 25.4849 131.775 24.6712C131.311 24.0992 130.924 23.2174 130.612 22.0257C130.299 20.8257 130.039 19.2093 129.832 17.1764Z" fill="white"/>
<path d="M150.947 14.3036L152.982 14.355C154.01 14.3809 154.727 14.1904 155.132 13.7834C155.545 13.3766 155.765 12.6354 155.791 11.5596C155.815 10.6006 155.613 9.92382 155.187 9.52922C154.76 9.13462 153.972 8.92278 152.82 8.89372L151.081 8.84985L150.947 14.3036ZM147.257 25.3375L147.73 6.07422L154.071 6.23428C155.987 6.28265 157.354 6.71351 158.174 7.5269C159.001 8.33216 159.393 9.62708 159.35 11.4116C159.319 12.6625 159.068 13.645 158.598 14.3591C158.128 15.0648 157.452 15.4691 156.569 15.572C158.236 16.0646 159.076 17.5253 159.09 19.9538C159.088 20.0622 159.086 20.1456 159.084 20.204L159.12 22.7582C159.135 23.4846 159.211 24.0706 159.348 24.5163C159.486 24.9536 159.707 25.3347 160.012 25.6595L155.818 25.5536C155.727 25.2259 155.662 24.8446 155.624 24.4097C155.585 23.9665 155.567 23.3444 155.571 22.5435L155.571 20.5283L155.583 20.0155C155.611 18.898 155.395 18.1249 154.937 17.6961C154.478 17.2673 153.529 17.0348 152.09 16.9984L150.882 16.968L150.674 25.4238L147.257 25.3375Z" fill="white"/>
<path d="M165.788 26.4738L168.01 10.5413L163.978 9.96307L164.417 6.81621L175.987 8.47551L175.548 11.6224L171.516 11.0442L169.294 26.9767L165.788 26.4738Z" fill="white"/>
<path d="M180.5 21.3713L183.419 22.1213L183.906 13.9078L180.5 21.3713ZM173.699 27.6008L182.517 9.9885L187.122 11.1719L186.641 30.9265L182.945 29.9767L183.209 25.0491L179.262 24.0348L177.204 28.5013L173.699 27.6008Z" fill="white"/>
<path d="M190.82 32.5069L196.348 17.4242L192.532 15.9855L193.624 13.0064L204.576 17.1351L203.484 20.1141L199.668 18.6754L194.139 33.7581L190.82 32.5069Z" fill="white"/>
<path d="M200.791 36.5793L208.888 19.147L212.092 20.6773L203.995 38.1095L200.791 36.5793Z" fill="white"/>
<path d="M215.691 33.4749C214.09 36.1976 213.237 38.0077 213.131 38.9049C213.036 39.7993 213.413 40.5028 214.26 41.0154C215.094 41.5194 215.865 41.5193 216.573 41.0152C217.293 40.5081 218.461 38.8788 220.079 36.1274C221.696 33.376 222.556 31.5553 222.658 30.6652C222.76 29.775 222.39 29.0758 221.549 28.5675C220.709 28.0592 219.926 28.0622 219.203 28.5765C218.479 29.0907 217.308 30.7235 215.691 33.4749ZM212.586 31.5976C213.618 29.8422 214.522 28.4905 215.3 27.5427C216.081 26.5876 216.801 25.9497 217.459 25.6287C218.375 25.1626 219.256 24.9669 220.103 25.0417C220.949 25.1165 221.91 25.4786 222.984 26.1278C224.058 26.7771 224.828 27.4615 225.296 28.1812C225.763 28.9009 226.016 29.7821 226.055 30.8249C226.081 31.5787 225.864 32.5257 225.404 33.6658C224.952 34.8101 224.212 36.2564 223.184 38.0047C222.161 39.7458 221.258 41.0939 220.476 42.0489C219.699 42.9968 218.98 43.6405 218.321 43.98C217.398 44.4419 216.514 44.6354 215.667 44.5606C214.82 44.4858 213.86 44.1238 212.786 43.4745C211.712 42.8253 210.941 42.1408 210.474 41.4212C210.006 40.7015 209.757 39.8224 209.726 38.7839C209.691 38.0443 209.9 37.1024 210.353 35.9581C210.809 34.8066 211.554 33.3531 212.586 31.5976Z" fill="white"/>
<path d="M221.751 48.6954L233.515 33.563L236.373 35.8481L232.032 49.5374L240.182 38.8925L242.808 40.9918L231.044 56.1242L228.204 53.8545L232.532 40.1224L224.367 50.7869L221.751 48.6954Z" fill="white"/>
<path d="M249.072 60.7692C246.708 62.8436 245.337 64.2899 244.958 65.1078C244.591 65.9267 244.73 66.7145 245.376 67.4714C246.011 68.2156 246.743 68.4613 247.572 68.2085C248.412 67.9564 250.026 66.7823 252.415 64.686C254.803 62.5896 256.183 61.1352 256.556 60.3227C256.929 59.5102 256.795 58.7287 256.154 57.9781C255.514 57.2275 254.77 56.981 253.924 57.2385C253.077 57.4959 251.46 58.6729 249.072 60.7692ZM246.706 57.9971C248.229 56.6596 249.507 55.6649 250.539 55.0129C251.577 54.3555 252.458 53.9793 253.182 53.8844C254.196 53.7338 255.093 53.8289 255.874 54.1698C256.654 54.5107 257.454 55.1606 258.272 56.1193C259.09 57.078 259.61 57.9734 259.831 58.8057C260.051 59.6379 260.018 60.5551 259.731 61.5572C259.522 62.2811 259.023 63.111 258.233 64.0468C257.449 64.9889 256.298 66.126 254.781 67.458C253.269 68.7846 251.994 69.7766 250.956 70.434C249.924 71.086 249.043 71.468 248.312 71.5802C247.293 71.7245 246.393 71.6262 245.612 71.2853C244.832 70.9444 244.032 70.2946 243.214 69.3359C242.396 68.3772 241.876 67.4817 241.656 66.6495C241.435 65.8172 241.471 64.9032 241.763 63.9074C241.959 63.1944 242.45 62.3668 243.234 61.4247C244.025 60.4771 245.182 59.3346 246.706 57.9971Z" fill="white"/>
<path d="M250.062 77.1794L265.798 66.3787L271.366 74.7203L268.791 76.4877L265.208 71.1201L261.489 73.6729L264.871 78.7401L262.357 80.4654L258.975 75.3982L252.047 80.1533L250.062 77.1794Z" fill="white"/>
<path d="M257.484 88.7415L274.282 79.735L278.925 88.6396L276.176 90.1134L273.189 84.3834L269.218 86.5123L272.038 91.9214L269.355 93.3601L266.535 87.951L259.139 91.9162L257.484 88.7415Z" fill="white"/>
<path d="M263.56 101.079L281.063 93.5783L282.442 96.8861L264.939 104.387L263.56 101.079Z" fill="white"/>
<path d="M275.386 113.821L276.427 117.148C276.349 117.173 276.232 117.215 276.078 117.274C275.931 117.329 275.815 117.371 275.729 117.399C273.635 118.072 271.938 118.124 270.638 117.553C269.348 116.988 268.414 115.783 267.837 113.939C267.564 113.064 267.442 112.276 267.473 111.575C267.496 110.876 267.672 110.224 268.001 109.62C268.434 108.798 269.16 108.083 270.178 107.475C271.196 106.868 273.069 106.125 275.798 105.247C277.664 104.647 279.17 104.246 280.315 104.044C281.467 103.839 282.364 103.809 283.005 103.953C283.99 104.179 284.781 104.598 285.379 105.211C285.984 105.821 286.464 106.695 286.82 107.832C287.402 109.693 287.347 111.198 286.654 112.349C285.963 113.507 284.561 114.431 282.446 115.12L281.409 111.804L281.844 111.664C282.824 111.349 283.502 110.951 283.879 110.472C284.265 109.997 284.355 109.43 284.149 108.77C283.893 107.951 283.384 107.498 282.623 107.41C281.865 107.33 279.976 107.776 276.957 108.747C273.696 109.796 271.757 110.577 271.141 111.091C270.527 111.612 270.348 112.282 270.604 113.101C270.843 113.864 271.284 114.309 271.928 114.434C272.579 114.557 273.649 114.379 275.139 113.9L275.386 113.821Z" fill="white"/>
<path d="M270.936 123.316L289.589 119.64L291.45 129.356L288.35 129.967L287.159 123.752L282.847 124.602L283.955 130.387L281 130.969L279.891 125.184L274.756 126.196L275.975 132.559L272.826 133.179L270.936 123.316Z" fill="white"/>
<path d="M19.221 191.023L20.0413 193.749C20.5161 195.328 21.265 196.343 22.2879 196.795C23.3204 197.252 24.7513 197.198 26.5806 196.632C28.4025 196.068 29.6422 195.325 30.2998 194.402C30.9574 193.479 31.0758 192.318 30.655 190.919L29.7098 187.778L19.221 191.023ZM15.2754 188.601L31.5729 183.559L33.5206 190.033C34.2835 192.569 34.1768 194.666 33.2005 196.325C32.2265 197.992 30.3675 199.25 27.6236 200.099C26.1337 200.56 24.751 200.734 23.4755 200.622C22.2023 200.517 21.0874 200.134 20.1307 199.474C19.4164 198.975 18.8188 198.342 18.3381 197.575C17.8648 196.806 17.4009 195.666 16.9463 194.155L15.2754 188.601Z" fill="white"/>
<path d="M27.7606 211.969L29.151 215.065C27.8032 215.309 26.5713 215.113 25.4552 214.477C24.3493 213.845 23.4895 212.846 22.8759 211.479C22.1216 209.8 22.0783 208.213 22.7461 206.719C23.4209 205.221 24.7093 204.033 26.6112 203.155C28.4851 202.289 30.1798 202.091 31.6952 202.56C33.2107 203.029 34.3456 204.103 35.1 205.782C35.899 207.562 35.9825 209.182 35.3504 210.642C34.7254 212.099 33.4303 213.282 31.4652 214.189C31.2476 214.29 31.0811 214.363 30.9656 214.407C30.8604 214.456 30.7554 214.496 30.6507 214.527L27.17 206.777C26.2909 207.234 25.7127 207.767 25.4355 208.377C25.1615 208.993 25.1939 209.678 25.5327 210.433C25.7724 210.967 26.0708 211.357 26.4277 211.605C26.7917 211.849 27.236 211.971 27.7606 211.969ZM29.1807 205.848L31.2327 210.417C31.992 210.032 32.4837 209.551 32.7079 208.975C32.9424 208.403 32.8966 207.754 32.5706 207.028C32.2669 206.352 31.8237 205.912 31.2408 205.709C30.6612 205.512 29.9745 205.559 29.1807 205.848Z" fill="white"/>
<path d="M37.4799 224.663C38.5598 223.996 39.2586 223.28 39.576 222.516C39.9001 221.748 39.8254 220.97 39.3518 220.182C38.8863 219.407 38.2479 218.991 37.4368 218.934C36.6296 218.883 35.6828 219.194 34.5963 219.865C33.5822 220.492 32.9249 221.187 32.6246 221.949C32.3283 222.719 32.413 223.491 32.8785 224.265C33.32 225 33.9503 225.402 34.7695 225.473C35.5886 225.544 36.4921 225.274 37.4799 224.663ZM23.2816 222.971L38.3253 213.673L39.9929 216.448L38.5409 217.345C39.4259 217.375 40.1678 217.558 40.7666 217.893C41.3693 218.234 41.8814 218.756 42.3028 219.457C43.1095 220.799 43.2402 222.211 42.6948 223.693C42.156 225.171 41.0372 226.435 39.3382 227.485C37.6195 228.547 35.9726 228.993 34.3975 228.821C32.8291 228.646 31.6495 227.9 30.8589 226.585C30.4415 225.89 30.2131 225.18 30.1738 224.453C30.1384 223.733 30.289 223.022 30.6254 222.319L24.9852 225.805L23.2816 222.971Z" fill="white"/>
<path d="M41.871 238.811C41.0935 238.882 40.3564 238.753 39.6598 238.422C38.9693 238.087 38.3434 237.556 37.7819 236.83C37.0301 235.857 36.7227 234.889 36.8597 233.926C37.0015 232.968 37.5761 232.089 38.5835 231.288C39.5181 230.545 40.4334 230.24 41.3294 230.372C42.2302 230.511 43.2403 231.114 44.3597 232.181C44.6163 232.424 44.9456 232.749 45.3476 233.155C46.3735 234.178 47.1383 234.489 47.642 234.088C48.0426 233.77 48.2303 233.417 48.2051 233.029C48.186 232.637 47.9481 232.146 47.4913 231.555C47.0726 231.013 46.6452 230.682 46.2092 230.562C45.7731 230.441 45.3579 230.538 44.9634 230.852L44.8177 230.967L42.8764 228.457L43.0585 228.312C44.072 227.506 45.1477 227.237 46.2857 227.505C47.4298 227.768 48.4967 228.539 49.4864 229.819C50.5712 231.223 51.1618 232.487 51.2581 233.613C51.3592 234.745 50.9576 235.671 50.0533 236.389L44.4275 240.862C44.0148 241.19 43.7386 241.48 43.5988 241.73C43.4652 241.975 43.4253 242.24 43.4791 242.526L43.0331 242.88L40.8705 240.083C40.969 239.856 41.1025 239.635 41.2707 239.422C41.439 239.209 41.6391 239.005 41.871 238.811ZM45.4767 235.869C44.9386 235.592 44.3876 235.215 43.8237 234.739C43.2646 234.269 42.9748 234.028 42.9545 234.014C42.4546 233.646 42.0308 233.447 41.683 233.415C41.34 233.39 40.9925 233.517 40.6405 233.797C40.2763 234.086 40.0778 234.438 40.0449 234.852C40.0181 235.261 40.1617 235.668 40.4757 236.074C41.0372 236.8 41.6776 237.21 42.3969 237.304C43.1271 237.4 43.8411 237.17 44.539 236.615L45.4767 235.869Z" fill="white"/>
<path d="M45.6394 245.728L54.7498 236.94L56.9025 239.234L55.3436 240.738C56.2723 240.457 57.084 240.392 57.7785 240.543C58.4786 240.688 59.1076 241.058 59.6657 241.653C59.7561 241.749 59.8224 241.825 59.8646 241.882C59.9178 241.938 59.9575 241.986 59.9838 242.026L57.5193 244.419L56.746 243.595C56.1135 242.921 55.4645 242.58 54.7992 242.575C54.1339 242.569 53.4604 242.895 52.7787 243.552L47.9594 248.201L45.6394 245.728Z" fill="white"/>
<path d="M57.2225 257.327C56.989 257.123 56.7072 256.879 56.3772 256.596C56.0477 256.324 55.8402 256.149 55.7545 256.07C54.8013 255.192 54.3085 254.41 54.2761 253.725C54.2546 253.04 54.721 252.165 55.6751 251.1L60.2488 245.994L59.0159 244.859L60.6027 243.087L61.8356 244.223L64.1458 241.644L66.6116 243.916L64.3014 246.495L65.7398 247.82L64.153 249.591L62.7146 248.266L58.032 253.493C57.8091 253.742 57.7155 253.957 57.7514 254.138C57.7924 254.313 57.9813 254.556 58.3181 254.866L58.926 255.426L57.2225 257.327Z" fill="white"/>
<path d="M59.841 259.77L67.1824 249.418L69.7744 251.308L68.9639 252.451C69.6835 252.254 70.3636 252.205 71.0043 252.307C71.645 252.408 72.2502 252.666 72.8199 253.082C73.4648 253.552 73.9279 254.078 74.2094 254.658C74.4953 255.233 74.6205 255.907 74.5849 256.681C75.3019 256.433 75.9947 256.36 76.6631 256.462C77.3316 256.565 77.9663 256.835 78.5674 257.273C79.5942 258.022 80.1919 258.92 80.3607 259.968C80.5295 261.016 80.2402 262.067 79.4928 263.121L74.3599 270.359L71.6646 268.393L76.3923 261.727C76.748 261.225 76.888 260.739 76.8124 260.27C76.7476 259.799 76.4772 259.39 76.0014 259.043C75.4692 258.655 74.9206 258.524 74.3554 258.652C73.7947 258.773 73.2982 259.138 72.866 259.747L68.4152 266.023L65.7481 264.078L70.4622 257.431C70.8225 256.923 70.9701 256.433 70.9053 255.962C70.8467 255.496 70.5826 255.091 70.1131 254.749C69.5809 254.361 69.0322 254.23 68.467 254.357C67.9081 254.489 67.4103 254.863 66.9735 255.479L62.5363 261.736L59.841 259.77Z" fill="white"/>
<path d="M86.9386 272.83L89.8988 274.43C88.9754 275.455 87.88 276.059 86.6125 276.243C85.3555 276.423 84.0738 276.16 82.7672 275.453C81.1612 274.585 80.1752 273.352 79.8093 271.754C79.4471 270.149 79.7575 268.411 80.7407 266.541C81.7093 264.699 82.9357 263.496 84.4199 262.934C85.9041 262.371 87.4492 262.524 89.0552 263.392C90.7565 264.312 91.7942 265.547 92.1682 267.096C92.5459 268.638 92.2269 270.376 91.211 272.308C91.0986 272.522 91.0099 272.682 90.9451 272.789C90.8906 272.892 90.8312 272.989 90.7668 273.078L83.3561 269.072C82.9325 269.977 82.7934 270.757 82.9387 271.412C83.0907 272.07 83.5275 272.594 84.2488 272.984C84.7592 273.26 85.2303 273.386 85.6622 273.363C86.0976 273.332 86.5231 273.154 86.9386 272.83ZM84.3955 267.095L88.7644 269.456C89.1362 268.683 89.2384 267.998 89.0709 267.402C88.9138 266.803 88.4882 266.316 87.7941 265.941C87.1476 265.591 86.532 265.516 85.9473 265.714C85.3694 265.915 84.8521 266.376 84.3955 267.095Z" fill="white"/>
<path d="M91.7305 279.543L96.4068 267.706L99.4671 268.95L98.9122 270.354C99.5754 269.958 100.26 269.739 100.966 269.698C101.675 269.649 102.395 269.772 103.125 270.069C104.413 270.593 105.241 271.325 105.609 272.266C105.986 273.203 105.906 274.354 105.366 275.719L102.178 283.788L99.0537 282.518L101.88 275.364C102.216 274.515 102.312 273.85 102.169 273.371C102.033 272.894 101.647 272.527 101.01 272.268C100.272 271.968 99.6001 271.956 98.9928 272.232C98.3883 272.5 97.9341 273.019 97.6301 273.789L94.8552 280.812L91.7305 279.543Z" fill="white"/>
<path d="M111.781 286.886C111.483 286.802 111.126 286.705 110.708 286.593C110.295 286.491 110.034 286.423 109.923 286.389C108.69 286.01 107.914 285.519 107.595 284.914C107.286 284.305 107.337 283.311 107.748 281.934L109.719 275.332L108.124 274.843L108.808 272.552L110.402 273.042L111.398 269.707L114.586 270.686L113.591 274.021L115.451 274.592L114.767 276.882L112.907 276.311L110.89 283.07C110.793 283.392 110.8 283.627 110.909 283.774C111.02 283.915 111.293 284.052 111.729 284.186L112.515 284.427L111.781 286.886Z" fill="white"/>
<path d="M127.034 283.706C126.849 284.959 126.958 285.964 127.361 286.721C127.771 287.48 128.445 287.93 129.383 288.072C130.306 288.213 131.069 287.981 131.673 287.376C132.285 286.773 132.683 285.846 132.868 284.593C133.052 283.347 132.942 282.35 132.538 281.601C132.135 280.844 131.469 280.395 130.538 280.253C129.6 280.111 128.825 280.341 128.214 280.944C127.611 281.54 127.218 282.461 127.034 283.706ZM123.659 283.194C123.969 281.098 124.772 279.536 126.071 278.507C127.369 277.479 128.998 277.113 130.958 277.411C132.91 277.708 134.359 278.54 135.303 279.909C136.254 281.28 136.576 283.013 136.266 285.109C135.955 287.212 135.147 288.778 133.841 289.805C132.543 290.834 130.918 291.2 128.965 290.903C127.005 290.605 125.553 289.772 124.609 288.403C123.665 287.034 123.348 285.297 123.659 283.194Z" fill="white"/>
<path d="M139.781 291.702L140.409 281.363L138.619 281.252L138.764 278.863L140.554 278.975L140.626 277.792C140.698 276.606 141.051 275.754 141.685 275.238C142.327 274.714 143.299 274.492 144.6 274.574C144.838 274.589 145.088 274.612 145.349 274.644C145.618 274.669 145.901 274.706 146.199 274.756L146.035 277.461L145.158 277.406C144.657 277.374 144.322 277.42 144.153 277.543C143.991 277.666 143.898 277.915 143.875 278.289L143.821 279.179L145.923 279.31L145.778 281.699L143.699 281.569L143.071 291.907L139.781 291.702Z" fill="white"/>
<path d="M160.587 291.748L159.509 277.596L154.469 277.991L154.234 274.915L167.774 273.854L168.009 276.93L163.003 277.322L164.081 291.474L160.587 291.748Z" fill="white"/>
<path d="M170.333 290.775L168.322 278.188L171.405 277.682L171.749 279.836C172.045 278.9 172.45 278.183 172.964 277.687C173.477 277.183 174.134 276.865 174.933 276.734C175.062 276.713 175.162 276.7 175.232 276.697C175.308 276.684 175.369 276.678 175.416 276.678L175.973 280.092L174.866 280.274C173.96 280.423 173.317 280.774 172.937 281.328C172.556 281.882 172.441 282.629 172.592 283.571L173.655 290.229L170.333 290.775Z" fill="white"/>
<path d="M187.49 285.645C187.239 286.394 186.822 287.024 186.241 287.535C185.658 288.038 184.925 288.402 184.042 288.627C182.861 288.927 181.864 288.818 181.051 288.299C180.247 287.779 179.688 286.889 179.377 285.63C179.088 284.462 179.185 283.489 179.669 282.713C180.16 281.935 181.114 281.245 182.531 280.642C182.855 280.503 183.281 280.33 183.81 280.123C185.149 279.589 185.74 279.007 185.584 278.377C185.46 277.877 185.219 277.559 184.86 277.425C184.498 277.283 183.959 277.303 183.241 277.486C182.583 277.654 182.111 277.915 181.825 278.27C181.539 278.625 181.457 279.049 181.579 279.542L181.624 279.724L178.572 280.501L178.516 280.273C178.202 279.006 178.398 277.9 179.102 276.955C179.804 276.002 180.934 275.328 182.489 274.932C184.195 274.498 185.574 274.465 186.627 274.834C187.688 275.201 188.359 275.95 188.638 277.08L190.379 284.111C190.506 284.627 190.654 285 190.823 285.232C190.99 285.455 191.212 285.6 191.491 285.666L191.629 286.224L188.23 287.089C188.065 286.905 187.921 286.692 187.797 286.449C187.673 286.207 187.571 285.938 187.49 285.645ZM186.308 281.108C185.839 281.493 185.275 281.85 184.617 282.179C183.967 282.506 183.631 282.676 183.61 282.689C183.076 283.003 182.723 283.314 182.554 283.624C182.391 283.931 182.364 284.305 182.473 284.745C182.586 285.2 182.822 285.527 183.181 285.726C183.539 285.917 183.964 285.95 184.458 285.824C185.34 285.599 185.97 285.173 186.348 284.545C186.73 283.907 186.814 283.152 186.598 282.28L186.308 281.108Z" fill="white"/>
<path d="M195.287 285.064L190.939 273.1L194.032 271.944L194.548 273.364C194.779 272.619 195.142 271.991 195.639 271.481C196.133 270.963 196.749 270.566 197.487 270.29C198.789 269.803 199.888 269.784 200.782 270.233C201.682 270.672 202.382 271.581 202.884 272.961L205.848 281.117L202.69 282.297L200.061 275.066C199.749 274.207 199.382 273.649 198.959 273.39C198.543 273.129 198.014 273.118 197.37 273.359C196.624 273.638 196.117 274.086 195.848 274.703C195.577 275.313 195.583 276.007 195.865 276.784L198.446 283.884L195.287 285.064Z" fill="white"/>
<path d="M207.51 275.882L210.516 274.372C210.828 274.94 211.247 275.27 211.775 275.363C212.299 275.449 212.948 275.298 213.722 274.909C214.309 274.614 214.714 274.288 214.936 273.933C215.161 273.566 215.185 273.201 215.007 272.836C214.754 272.318 213.963 272.231 212.633 272.576C212.091 272.717 211.657 272.822 211.329 272.891C209.679 273.248 208.44 273.312 207.614 273.081C206.794 272.847 206.168 272.289 205.737 271.406C205.165 270.236 205.128 269.102 205.625 268.006C206.126 266.899 207.088 265.988 208.511 265.273C210.018 264.516 211.365 264.263 212.554 264.512C213.75 264.758 214.677 265.484 215.335 266.689L212.401 268.163C212.144 267.69 211.778 267.407 211.303 267.314C210.834 267.218 210.295 267.322 209.687 267.628C209.114 267.916 208.728 268.219 208.53 268.536C208.34 268.85 208.33 269.183 208.501 269.533C208.723 269.988 209.67 270.015 211.341 269.612C211.724 269.515 212.028 269.441 212.252 269.39C213.926 268.994 215.159 268.911 215.952 269.141C216.751 269.368 217.375 269.941 217.823 270.859C218.457 272.155 218.487 273.371 217.913 274.505C217.347 275.636 216.204 276.634 214.483 277.498C212.928 278.279 211.539 278.536 210.316 278.269C209.092 278.002 208.178 277.249 207.572 276.008L207.51 275.882Z" fill="white"/>
<path d="M227.036 262.397C226.355 261.317 225.634 260.624 224.874 260.318C224.11 260.006 223.344 260.099 222.578 260.596C221.824 261.085 221.428 261.741 221.389 262.565C221.356 263.384 221.683 264.337 222.368 265.424C223.008 266.439 223.707 267.09 224.466 267.378C225.231 267.662 225.99 267.559 226.743 267.071C227.458 266.607 227.841 265.959 227.893 265.127C227.945 264.295 227.66 263.385 227.036 262.397ZM225.675 276.828L216.183 261.778L218.882 260.027L219.798 261.48C219.809 260.582 219.973 259.826 220.29 259.211C220.614 258.593 221.117 258.062 221.799 257.62C223.105 256.773 224.494 256.61 225.967 257.131C227.436 257.645 228.706 258.752 229.778 260.452C230.862 262.171 231.337 263.831 231.202 265.432C231.063 267.026 230.354 268.238 229.074 269.068C228.398 269.506 227.703 269.753 226.987 269.809C226.278 269.86 225.574 269.723 224.874 269.397L228.433 275.04L225.675 276.828Z" fill="white"/>
<path d="M234.495 256.798C235.285 257.779 236.092 258.374 236.915 258.58C237.744 258.782 238.526 258.579 239.261 257.971C239.984 257.373 240.328 256.644 240.294 255.784C240.265 254.92 239.855 253.997 239.066 253.015C238.28 252.04 237.479 251.452 236.66 251.251C235.837 251.044 235.061 251.242 234.332 251.846C233.597 252.454 233.244 253.19 233.273 254.055C233.302 254.908 233.71 255.822 234.495 256.798ZM231.851 258.986C230.53 257.344 229.93 255.69 230.053 254.024C230.175 252.358 231.004 250.89 232.54 249.619C234.069 248.353 235.651 247.826 237.285 248.039C238.925 248.246 240.406 249.171 241.727 250.812C243.053 252.46 243.652 254.12 243.524 255.791C243.401 257.457 242.575 258.923 241.046 260.188C239.51 261.459 237.926 261.988 236.292 261.776C234.658 261.564 233.177 260.634 231.851 258.986Z" fill="white"/>
<path d="M248.479 253.024L239.62 243.975L241.836 241.744L243.352 243.292C243.055 242.356 242.974 241.535 243.107 240.828C243.235 240.115 243.586 239.469 244.161 238.89C244.254 238.797 244.328 238.728 244.383 238.684C244.437 238.629 244.484 238.587 244.522 238.56L246.935 241.007L246.138 241.809C245.487 242.465 245.166 243.13 245.174 243.805C245.183 244.479 245.518 245.155 246.181 245.832L250.868 250.619L248.479 253.024Z" fill="white"/>
<path d="M259.666 241.032C259.47 241.273 259.235 241.564 258.964 241.905C258.703 242.245 258.534 242.459 258.459 242.547C257.613 243.533 256.854 244.049 256.179 244.097C255.504 244.134 254.631 243.68 253.56 242.736L248.427 238.21L247.334 239.485L245.554 237.914L246.647 236.64L244.054 234.354L246.24 231.804L248.833 234.09L250.108 232.603L251.889 234.173L250.613 235.66L255.868 240.294C256.119 240.515 256.332 240.605 256.51 240.565C256.682 240.519 256.917 240.323 257.216 239.974L257.755 239.346L259.666 241.032Z" fill="white"/>
<path d="M264.82 231.363C265.103 232.101 265.184 232.855 265.063 233.625C264.936 234.391 264.606 235.148 264.073 235.896C263.359 236.897 262.527 237.465 261.576 237.598C260.63 237.724 259.638 237.407 258.6 236.647C257.637 235.942 257.095 235.134 256.972 234.224C256.855 233.308 257.147 232.157 257.849 230.771C258.009 230.453 258.225 230.043 258.498 229.539C259.184 228.256 259.267 227.425 258.749 227.045C258.336 226.743 257.95 226.657 257.589 226.789C257.223 226.916 256.823 227.284 256.389 227.892C255.992 228.45 255.796 228.958 255.803 229.416C255.809 229.875 256.016 230.252 256.422 230.55L256.572 230.66L254.729 233.246L254.542 233.109C253.498 232.344 252.946 231.37 252.885 230.187C252.818 228.999 253.254 227.746 254.193 226.428C255.223 224.983 256.258 224.057 257.298 223.652C258.343 223.241 259.331 223.376 260.263 224.059L266.057 228.304C266.482 228.616 266.833 228.805 267.108 228.872C267.378 228.935 267.64 228.9 267.896 228.769L268.355 229.105L266.302 231.986C266.059 231.953 265.814 231.884 265.565 231.779C265.316 231.674 265.068 231.535 264.82 231.363ZM261.035 228.663C260.921 229.264 260.716 229.905 260.421 230.586C260.131 231.261 259.982 231.61 259.974 231.633C259.764 232.222 259.692 232.691 259.758 233.038C259.829 233.38 260.046 233.683 260.408 233.949C260.783 234.224 261.172 234.32 261.573 234.237C261.968 234.151 262.314 233.898 262.612 233.48C263.145 232.732 263.357 231.994 263.247 231.267C263.135 230.529 262.72 229.897 262.001 229.37L261.035 228.663Z" fill="white"/>
<path d="M273.244 220.941C273.093 221.214 272.914 221.543 272.708 221.928C272.512 222.31 272.384 222.552 272.325 222.653C271.669 223.776 271.014 224.423 270.359 224.594C269.701 224.753 268.761 224.466 267.54 223.733L261.687 220.22L260.839 221.673L258.808 220.454L259.657 219.001L256.7 217.226L258.397 214.319L261.354 216.094L262.344 214.398L264.374 215.617L263.384 217.313L269.377 220.91C269.662 221.081 269.889 221.131 270.056 221.059C270.217 220.983 270.413 220.746 270.645 220.349L271.064 219.632L273.244 220.941Z" fill="white"/>
<path d="M262.385 211.261L259.65 209.857L261.17 206.812L263.905 208.216L262.385 211.261ZM274.851 217.662L263.633 211.902L265.154 208.857L276.372 214.617L274.851 217.662Z" fill="white"/>
<path d="M273.575 205.495C274.737 205.96 275.727 206.078 276.545 205.851C277.366 205.616 277.951 205.051 278.299 204.156C278.641 203.276 278.59 202.47 278.146 201.737C277.704 200.997 276.902 200.394 275.74 199.93C274.585 199.467 273.602 199.352 272.791 199.582C271.973 199.81 271.391 200.367 271.046 201.255C270.698 202.149 270.745 202.967 271.186 203.707C271.624 204.437 272.42 205.033 273.575 205.495ZM272.323 208.714C270.378 207.936 269.058 206.79 268.363 205.276C267.667 203.762 267.682 202.07 268.41 200.2C269.134 198.338 270.26 197.094 271.788 196.47C273.319 195.838 275.057 195.911 277.001 196.689C278.952 197.469 280.274 198.62 280.967 200.142C281.663 201.656 281.649 203.344 280.924 205.207C280.197 207.076 279.069 208.323 277.541 208.948C276.013 209.572 274.274 209.494 272.323 208.714Z" fill="white"/>
<path d="M284.016 195.286L271.839 192.105L272.662 188.868L274.107 189.245C273.634 188.629 273.332 187.969 273.201 187.264C273.062 186.557 273.09 185.818 273.287 185.045C273.633 183.682 274.243 182.755 275.116 182.265C275.984 181.765 277.119 181.698 278.523 182.065L286.824 184.234L285.984 187.539L278.624 185.616C277.751 185.388 277.089 185.377 276.638 185.582C276.19 185.78 275.88 186.216 275.709 186.89C275.511 187.67 275.585 188.347 275.933 188.923C276.273 189.496 276.839 189.886 277.63 190.093L284.856 191.981L284.016 195.286Z" fill="white"/>
<path d="M289.953 166.328L283.667 161.702L277.144 165.972L279.51 158.437L273.518 153.42L281.266 153.39L284.086 146.02L286.508 153.536L294.243 153.997L287.992 158.673L289.953 166.328Z" fill="white"/>
<path d="M22.5212 168.899L16.2354 164.272L9.71218 168.542L12.0783 161.007L6.08594 155.991L13.8341 155.96L16.6539 148.59L19.0764 156.106L26.8114 156.567L20.5604 161.243L22.5212 168.899Z" fill="white"/>
</g>
<defs>
<clipPath id="clip0_3872_485">
<rect width="300" height="300" fill="white"/>
</clipPath>
</defs>
</svg>
